<?xml version="1.0" standalone="no"?>
<!DOCTYPE svg PUBLIC "-//W3C//DTD SVG 20010904//EN"
 "http://www.w3.org/TR/2001/REC-SVG-20010904/DTD/svg10.dtd">
<svg version="1.0" xmlns="http://www.w3.org/2000/svg"
 width="272.000000pt" height="283.000000pt" viewBox="0 0 272.000000 283.000000"
 preserveAspectRatio="xMidYMid meet">

<g transform="translate(0.000000,283.000000) scale(0.100000,-0.100000)"
fill="#000000" stroke="none">
<path d="M790 2391 c-115 -35 -200 -152 -200 -276 0 -99 71 -208 165 -251 64
-30 170 -33 231 -5 59 27 111 77 142 135 22 42 27 64 26 126 0 64 -4 83 -29
129 -36 65 -92 115 -153 135 -48 17 -139 20 -182 7z"/>
<path d="M1730 2379 c-55 -25 -114 -80 -143 -134 -31 -58 -31 -193 0 -251 29
-55 111 -127 161 -142 55 -17 140 -15 194 4 187 63 242 319 100 462 -80 79
-214 106 -312 61z"/>
<path d="M2235 1766 c-16 -8 -240 -227 -498 -489 -342 -348 -475 -477 -496
-482 -18 -4 -40 -1 -58 8 -15 8 -96 85 -180 170 -121 123 -153 161 -158 190
-12 61 15 115 72 142 67 32 93 19 246 -133 l138 -137 -3 200 c-3 180 -5 205
-25 247 -32 71 -103 141 -176 174 -60 28 -66 29 -222 29 -143 -1 -166 -3 -218
-24 -78 -31 -157 -109 -188 -188 l-24 -58 0 -570 c0 -557 0 -571 21 -605 33
-56 47 -60 272 -60 l204 0 34 34 c39 39 37 22 35 283 -1 162 1 183 15 183 9 0
55 -38 103 -84 96 -95 128 -112 175 -96 19 6 95 73 196 175 l165 165 5 -301 5
-301 33 -29 32 -29 205 0 205 0 38 34 37 34 3 588 2 588 84 86 c64 65 86 95
91 122 10 53 -16 102 -69 128 -49 23 -60 24 -101 6z"/>
</g>
</svg>
